<?xml version="1.0" standalone="no"?>
<!DOCTYPE svg PUBLIC "-//W3C//DTD SVG 20010904//EN"
 "http://www.w3.org/TR/2001/REC-SVG-20010904/DTD/svg10.dtd">
<svg version="1.0" xmlns="http://www.w3.org/2000/svg"
 width="279.000000pt" height="173.000000pt" viewBox="0 0 279.000000 173.000000"
 preserveAspectRatio="xMidYMid meet">

<g transform="translate(0.000000,173.000000) scale(0.100000,-0.100000)"
fill="#000000" stroke="none">
<path d="M2070 1485 l-185 -185 188 -188 187 -187 187 187 188 188 -185 185
c-102 102 -187 185 -190 185 -3 0 -88 -83 -190 -185z"/>
<path d="M810 1065 l-185 -185 188 -188 187 -187 185 185 185 185 -188 188
-187 187 -185 -185z"/>
<path d="M1652 1067 c-100 -100 -181 -187 -181 -192 1 -6 84 -91 185 -189
l182 -179 186 184 185 185 -187 187 -187 187 -183 -183z"/>
<path d="M388 643 l-188 -188 186 -180 c102 -99 186 -181 187 -182 1 -1 87 80
190 180 l188 182 -188 188 -188 187 -187 -187z"/>
<path d="M1231 646 l-185 -185 44 -48 c24 -26 107 -112 184 -190 l141 -142
187 187 187 188 -187 187 -187 187 -184 -184z"/>
</g>
</svg>
